<svg height="911" viewBox="0 0 1664 911" width="1664" xmlns="http://www.w3.org/2000/svg"><g fill="none" fill-rule="nonzero"><path d="m0 0h1664v911h-1664z" fill="#eee"/><g fill="#aeaeae" transform="translate(535 330)"><path d="m24.805 213.93c8.698 0 15.13-3.581 19.297-10.743 3.072-5.312 4.609-11.796 4.609-19.453 0-3.02-.365-6.198-1.094-9.53-.729-3.334-2.096-6.433-4.101-9.298-2.5-3.541-5.769-5.976-9.805-7.304-2.37-.782-5.339-1.198-8.906-1.25h-24.805v57.578zm-2.032-10h-11.093v-37.578h11.093c5.47 0 9.122 1.569 10.957 4.707 1.836 3.138 2.754 7.636 2.754 13.496 0 4.244-.612 7.903-1.836 10.976-2.24 5.6-6.197 8.399-11.875 8.399zm41.976 10v-20.352c0-3.411.43-5.937 1.289-7.578 1.536-2.917 4.544-4.375 9.023-4.375 1.0704367.006154 2.1397224.071253 3.203.195v-11.406c-.3192661-.015083-.638299-.034752-.957-.059-.1752864-.014425-.3511245-.021098-.527-.020116-3.333 0-6.042.873116-8.125 2.618116-1.276 1.042-2.773 2.982-4.492 5.82v-7.421h-10.625v42.578h11.21zm35.96 1.484c7.317 0 12.773-2.22 16.367-6.66 3.593-4.44 5.39-9.785 5.39-16.035 0-6.146-1.797-11.472-5.39-15.977-3.594-4.505-9.05-6.758-16.368-6.758-7.317 0-12.773 2.253-16.367 6.758s-5.39 9.83-5.39 15.977c0 6.25 1.796 11.595 5.39 16.035s9.05 6.66 16.367 6.66zm-.04-9.336c-3.255 0-5.761-1.159-7.52-3.476-1.757-2.318-2.636-5.612-2.636-9.883s.879-7.559 2.637-9.864c1.758-2.304 4.264-3.457 7.52-3.457 3.255 0 5.755 1.153 7.5 3.457 1.744 2.305 2.617 5.593 2.617 9.864 0 4.27-.873 7.565-2.618 9.883-1.744 2.317-4.244 3.476-7.5 3.476zm37.25 24.61v-22.188c1.171 1.797 2.369 3.164 3.593 4.102 2.24 1.692 5.052 2.539 8.437 2.539 5.313 0 9.655-1.967 13.028-5.899 3.372-3.932 5.058-9.648 5.058-17.148 0-7.11-1.725-12.5-5.175-16.172-3.451-3.672-7.663-5.508-12.637-5.508-3.412 0-6.354.95-8.828 2.852-1.354 1.067-2.63 2.526-3.828 4.375v-6.29h-10.664v59.337h11.015zm9.1-24.883c-2.135 0-3.984-.586-5.546-1.758-2.63-2.005-3.945-5.482-3.945-10.43 0-3.125.39-5.703 1.171-7.734 1.51-3.828 4.284-5.742 8.32-5.742 3.36 0 5.788 1.263 7.286 3.789 1.497 2.526 2.246 5.43 2.246 8.71 0 3.985-.814 7.175-2.441 9.57-1.628 2.397-3.991 3.595-7.09 3.595zm56.295-39.532v-10.273h-11.289v10.273h11.29zm0 47.657v-42.578h-11.289v42.578h11.29zm18.655 0v-25.625c0-2.318.3-4.063.898-5.235 1.094-2.057 3.23-3.086 6.407-3.086 2.734 0 4.57 1.029 5.508 3.086.52 1.146.78 2.982.78 5.508v25.352h11.212v-25.352c0-1.9.3-3.529.898-4.883 1.172-2.552 3.294-3.828 6.367-3.828 2.657 0 4.48.99 5.47 2.969.52 1.042.78 2.37.78 3.984v27.11h11.407l.078-26.836c0-2.76-.13-4.857-.39-6.29-.418-2.16-1.225-3.984-2.423-5.468-1.484-1.823-3.138-3.099-4.96-3.828-1.824-.73-3.673-1.094-5.548-1.094-2.812 0-5.364.586-7.656 1.758-2.161 1.172-3.971 3.008-5.43 5.508-.833-2.084-2.057-3.79-3.671-5.118-2.006-1.432-4.636-2.148-7.891-2.148-3.438 0-6.237.833-8.398 2.5-1.224.938-2.526 2.513-3.907 4.727v-6.211h-10.82v42.5h11.29zm67.249 1.328c3.02 0 5.729-.69 8.125-2.07 1.973161-1.1464 3.763656-2.581627 5.312-4.258.078.963.183 1.823.313 2.578.151412.829127.386963 1.640657.703 2.422h12.11v-1.64c-.73-.34-1.277-.77-1.641-1.29-.365-.52-.586-1.51-.664-2.969-.047655-1.640252-.073657-3.281062-.078-4.922v-19.53c0-5.131-1.81-8.62-5.43-10.47-3.62-1.849-7.76-2.773-12.422-2.773-7.162 0-12.214 1.875-15.156 5.625-1.85 2.396-2.89 5.456-3.125 9.18h10.742c.26-1.641.781-2.943 1.562-3.907 1.094-1.302 2.956-1.953 5.586-1.953 2.344 0 4.121.332 5.332.996s1.817 1.869 1.817 3.614c0 1.432-.795 2.487-2.383 3.164-.885.39-2.357.716-4.414.976l-3.79.469c-4.296.547-7.551 1.458-9.765 2.734-4.036 2.344-6.054 6.133-6.054 11.368 0 4.036 1.256 7.155 3.769 9.355s5.697 3.3 9.55 3.3zm3.281-8.086c-1.51 0-2.793-.423-3.848-1.27-1.054-.846-1.582-2.22-1.582-4.12 0-2.136.86-3.712 2.579-4.727 1.015-.6 2.695-1.107 5.039-1.524l2.5-.469c1.25-.234 2.233-.488 2.949-.761.743303-.287017 1.456433-.646764 2.129-1.074v4.14c-.078 3.724-1.127 6.29-3.145 7.695-2.018 1.407-4.225 2.11-6.62 2.11zm44.983 24.18c9.01 0 15.104-2.396 18.281-7.188 1.85-2.786 2.774-6.927 2.774-12.422v-40.39h-10.82v6.132c-1.667-2.994-3.855-5.052-6.563-6.171-1.588-.652-3.45-.977-5.586-.977-5.781 0-10.247 2.155-13.398 6.465s-4.727 9.629-4.727 15.957c0 6.562 1.634 11.764 4.902 15.605 3.269 3.841 7.637 5.762 13.106 5.762 3.542 0 6.42-.846 8.633-2.54 1.224-.91 2.37-2.278 3.437-4.1v2.734c0 4.062-.442 6.953-1.328 8.672-1.354 2.682-4.036 4.023-8.047 4.023-2.838 0-4.857-.508-6.054-1.523-.704-.573-1.211-1.51-1.524-2.813h-12.11c.365 4.245 2.266 7.435 5.704 9.57 3.437 2.136 7.877 3.204 13.32 3.204zm.86-26.563c-3.907 0-6.615-1.797-8.125-5.39-.834-1.928-1.25-4.128-1.25-6.602 0-2.865.39-5.274 1.171-7.227 1.485-3.672 4.18-5.507 8.086-5.507 2.865 0 5.15 1.054 6.856 3.164 1.706 2.109 2.558 5.182 2.558 9.218 0 4.297-.898 7.429-2.695 9.395s-3.997 2.95-6.601 2.95zm44.553 10.547c6.563 0 11.667-2.07 15.313-6.211 2.343-2.604 3.658-5.17 3.945-7.695h-11.367c-.6 1.25-1.29 2.226-2.07 2.93-1.433 1.301-3.295 1.952-5.587 1.952-2.161 0-4.01-.533-5.547-1.601-2.526-1.719-3.867-4.714-4.023-8.984h29.14c.053-3.672-.064-6.485-.35-8.438-.496-3.333-1.576-6.263-3.243-8.789-1.849-2.865-4.193-4.96-7.031-6.29-2.839-1.327-6.029-1.991-9.57-1.991-5.964 0-10.814 1.966-14.551 5.898s-5.606 9.584-5.606 16.953c0 7.865 2.07 13.542 6.211 17.032 4.14 3.49 8.92 5.234 14.336 5.234zm8.242-26.953h-17.304c.364-2.76 1.256-4.948 2.675-6.563 1.42-1.614 3.418-2.422 5.996-2.422 2.37 0 4.356.762 5.957 2.286 1.602 1.523 2.494 3.756 2.676 6.699zm46.021 25.547v-23.047c0-3.646.762-6.452 2.285-8.418 1.524-1.966 3.757-2.95 6.7-2.95 2.838 0 4.765.99 5.78 2.97.782 1.406 1.173 3.255 1.173 5.546v25.899h11.367v-25c0-3.802-.13-6.543-.39-8.223-.261-1.68-.977-3.314-2.15-4.902-1.349043-1.85059-3.179282-3.296244-5.292-4.18-2.149-.911-4.538-1.367-7.168-1.367-2.344 0-4.577.488-6.7 1.465-2.122.976-3.99 2.701-5.605 5.175v-20.351h-11.094v57.383zm51.663 1.406c6.562 0 11.667-2.07 15.312-6.211 2.344-2.604 3.66-5.17 3.946-7.695h-11.367c-.6 1.25-1.29 2.226-2.07 2.93-1.433 1.301-3.295 1.952-5.587 1.952-2.161 0-4.01-.533-5.547-1.601-2.526-1.719-3.867-4.714-4.023-8.984h29.14c.053-3.672-.064-6.485-.35-8.438-.496-3.333-1.576-6.263-3.243-8.789-1.85-2.865-4.193-4.96-7.031-6.29-2.839-1.327-6.029-1.991-9.57-1.991-5.964 0-10.814 1.966-14.551 5.898s-5.606 9.584-5.606 16.953c0 7.865 2.07 13.542 6.211 17.032 4.14 3.49 8.92 5.234 14.336 5.234zm8.242-26.953h-17.305c.365-2.76 1.257-4.948 2.676-6.563 1.42-1.614 3.418-2.422 5.996-2.422 2.37 0 4.356.762 5.957 2.286 1.602 1.523 2.494 3.756 2.676 6.699zm26.937 25.547v-20.352c0-3.411.43-5.937 1.29-7.578 1.536-2.917 4.544-4.375 9.023-4.375 1.070437.006154 2.139722.071253 3.203.195v-11.406c-.319266-.015083-.638299-.034752-.957-.059-.175286-.014425-.351125-.021098-.527-.020116-3.334 0-6.042.873116-8.125 2.618116-1.276 1.042-2.774 2.982-4.493 5.82v-7.421h-10.625v42.578zm34.007 1.406c6.562 0 11.667-2.07 15.312-6.211 2.344-2.604 3.66-5.17 3.946-7.695h-11.367c-.6 1.25-1.29 2.226-2.07 2.93-1.433 1.301-3.295 1.952-5.587 1.952-2.161 0-4.01-.533-5.547-1.601-2.526-1.719-3.867-4.714-4.023-8.984h29.14c.053-3.672-.064-6.485-.35-8.438-.496-3.333-1.576-6.263-3.243-8.789-1.85-2.865-4.193-4.96-7.031-6.29-2.839-1.327-6.029-1.991-9.57-1.991-5.964 0-10.814 1.966-14.551 5.898s-5.606 9.584-5.606 16.953c0 7.865 2.07 13.542 6.211 17.032 4.14 3.49 8.92 5.234 14.336 5.234zm8.242-26.953h-17.305c.365-2.76 1.257-4.948 2.676-6.563 1.42-1.614 3.418-2.422 5.996-2.422 2.37 0 4.356.762 5.957 2.286 1.602 1.523 2.494 3.756 2.676 6.699zm27.483 25.547v-11.64h-11.836v11.64z"/><path d="m134.9 0h-127.8c-3.9263 0-7.1 3.1569375-7.1 7.0625v98.875c0 3.8985 3.1737 7.0625 7.1 7.0625h127.8c3.9263 0 7.1-3.164 7.1-7.0625v-98.875c0-3.8985-3.1737-7.0625-7.1-7.0625zm-6.9 99h-114v-85h114zm-25.935417-36.1344008-22.8862497 11.3755086-26.7041666-43.2411078-23.4741667 54h85zm-8.064583-12.8655992c4.968 0 9-4.032 9-9s-4.032-9-9-9-9 4.032-9 9 4.032 9 9 9z" transform="translate(218)"/></g></g></svg>