<svg enable-background="new 0 0 20 20" viewBox="0 0 20 20" xmlns="http://www.w3.org/2000/svg"><path d="m3.389 7.113 1.101 10.908c.061.461 2.287 1.977 5.51 1.979 3.225-.002 5.451-1.518 5.511-1.979l1.102-10.908c-1.684.942-4.201 1.387-6.613 1.387-2.41 0-4.928-.445-6.611-1.387zm9.779-5.603-.859-.951c-.332-.473-.692-.559-1.393-.559h-1.831c-.7 0-1.061.086-1.392.559l-.859.951c-2.57.449-4.434 1.64-4.434 2.519v.17c0 1.547 3.403 2.801 7.6 2.801 4.198 0 7.601-1.254 7.601-2.801v-.17c0-.879-1.863-2.07-4.433-2.519zm-1.098 2.83-1.07-1.34h-2l-1.068 1.34h-1.7s1.862-2.221 2.111-2.522c.19-.23.384-.318.636-.318h2.043c.253 0 .447.088.637.318.248.301 2.111 2.522 2.111 2.522z"/></svg>